# xmcd CD database file
#
# Track frame offsets:
#	182
#	31997
#	65130
#	91500
#	98600
#	126290
#	148632
#	186987
#
# Disc length: 2959 seconds
#
# Revision: 1
# Processed by: cddbd v1.5.2PL0 Copyright (c) Steve Scherf et al.
# Submitted via: CDex 1.70beta2
#
DISCID=690b8d08
DTITLE=Theo Travis - 2am
DYEAR=1993
DGENRE=Jazz
TTITLE0=Fish
TTITLE1=2 am
TTITLE2=The Strut
TTITLE3=Sex, Food and Money (part2)
TTITLE4=The Book
TTITLE5=In a Mellow Tone
TTITLE6=Nightmare in New York
TTITLE7=Shore Thing
EXTD=YEAR: 1993
EXTT0=
EXTT1=
EXTT2=
EXTT3=
EXTT4=
EXTT5=
EXTT6=
EXTT7=
PLAYORDER=
